<svg id="レイヤー_1" data-name="レイヤー 1" xmlns="http://www.w3.org/2000/svg" viewBox="0 0 400 120"><defs><style>.cls-1{isolation:isolate;}.cls-2{fill:#565656;}</style></defs><g id="堀_未央奈" data-name="堀 未央奈" class="cls-1"><g class="cls-1"><path class="cls-2" d="M4.51,58.22c-.58,0-1-.33-1.81-1.8Q1.84,54.94,0,51.5a13.71,13.71,0,0,0,1.81.08,16.42,16.42,0,0,0,3.6-.41c1.89-.49,4-1.07,6.15-1.81V26.81H10.5c-1.4,0-4.18.17-5.58,1.23A6.92,6.92,0,0,1,.66,24a36,36,0,0,0,7.79.58h3.11V16.81c0-2.06,0-3.7-.16-6.24a23.66,23.66,0,0,0-1.15-6.15c3.28.9,4.27,1.23,6.23,1.89,1.32.41,1.73.74,1.73,1.31,0,1-1.07,1.72-2.46,2.54-.17,2.71-.17,3.45-.17,6.15V24.6h2.54l1.64-1.81c.42-.41.58-.49.74-.49s.33,0,.82.49c1.07,1,1.72,1.64,2.79,2.71.49.49.58.65.58.82a.54.54,0,0,1-.58.49H15.58V48.05a92.61,92.61,0,0,0,9.92-4.18l.42.74A93.62,93.62,0,0,1,6.48,55.51C6,57.07,5.33,58.22,4.51,58.22ZM65.52,22H32.8c-.16,25.67-5.08,44.45-22.3,53.39L10,74.62c15.25-12,18.45-30.83,18.45-53.8,0-3.93-.08-6.48-.33-9.84A27.25,27.25,0,0,0,27,4.75c2.14.82,4.1,1.64,6.07,2.62.82.41.9.5,1,.66h30l1.72-2a1.27,1.27,0,0,1,.91-.57,2.24,2.24,0,0,1,1,.41c1.06.65,2.46,1.56,3.44,2.29.33.25.5.41.5.74s-1.07,1.4-2,2.14c.16,4,.32,10.16.32,11.64,0,1.15-1.72,2.54-3,2.54-1.15,0-1.4-1.23-1.4-1.8Zm0-2.21V10.24H32.8v9.52Zm1,56.17a1.27,1.27,0,0,1-1.23-1.31V70H39.53v3.44A2.65,2.65,0,0,1,37,75.69c-.9,0-1.56-.9-1.56-2,0-.74.08-2.3.16-3.86.08-1.88.17-4.1.17-5.74V62.65c0-2.22-.09-3.77-.25-5.58a13.34,13.34,0,0,0-.82-3.77c1.48.33,4.68,1.31,5.91,1.72.65.25.81.58.81.9,0,.66-.73,1.15-1.72,1.73a42.52,42.52,0,0,0-.16,4.84v5.33H50.6V46h-9v1.23A2.65,2.65,0,0,1,39,49.45c-.91,0-1.56-.91-1.56-2.06,0-.73.08-2.29.16-3.85.08-1.89.17-3.85.17-4.92v-.33a46.21,46.21,0,0,0-.25-5,13.27,13.27,0,0,0-.82-3.77c1.48.33,4.67,1.31,5.9,1.72.66.24.83.57.83.9,0,.66-.74,1.15-1.73,1.72-.08.58-.16,2.3-.16,4.43v5.5h9V34.35c0-.81,0-1.72-.16-3.6a32.38,32.38,0,0,0-1.07-6.15c1.72.49,5,1.55,5.91,1.88s1.31.58,1.31,1.07c0,.82-1,1.31-2.05,1.8-.17,2-.17,3.77-.17,4.76v9.68h8.78V38c0-1.14-.09-2.78-.25-4.59a13.34,13.34,0,0,0-.82-3.77c1.48.33,4.68,1.31,5.91,1.72.65.25.82.57.82.9,0,.66-.74,1.15-1.72,1.73-.09.82-.17,2.62-.17,3.69v.41c0,1.14.08,2.62.17,4,.08,1,.24,3,.24,3.53,0,1.64-1.64,3.36-3,3.36a1.27,1.27,0,0,1-1.23-1.31V46H54.37V67.82H65.28V62.07A54.93,54.93,0,0,0,65,56.5a12.86,12.86,0,0,0-.82-3.77c1.48.32,4.68,1.31,5.91,1.72.65.24.82.57.82.9,0,.66-.74,1.15-1.72,1.72a40.2,40.2,0,0,0-.17,4.84v2.3c0,1.15.09,3.44.17,4.84.08,1,.24,3,.24,3.52C69.46,74.21,67.82,75.93,66.51,75.93Z"/><path class="cls-2" d="M167.28,77.17c-1.31,0-2.05-1.48-2.05-3,0-1,.17-6.15.33-9.59.16-3.94.33-10.09.33-15.09v-8A63.51,63.51,0,0,1,132,68.64l-.58-.74c12.88-6.64,24.36-16.24,30.92-29.53H142.68c-1.39,0-4.18.17-5.58,1.23a7,7,0,0,1-4.26-4,36.66,36.66,0,0,0,7.79.57h25.26V20.33h-14.6c-1.39,0-4.18.08-5.58,1.15a6.8,6.8,0,0,1-4.26-3.94,36,36,0,0,0,7.79.58h16.65c0-3-.08-7-.33-10.09A24.28,24.28,0,0,0,163.92.9c1.64.57,5.74,2,6.89,2.54.57.24,1.23.57,1.23,1.15,0,.82-1,2-1.89,2.78C170,11,170,14.51,170,18.12h14.92l2.71-3c.33-.33.49-.5.82-.5s.49.08,1.07.5c1.55,1.06,3.69,2.62,5.41,3.93.33.25.41.41.41.66a.67.67,0,0,1-.74.57H170V36.16h22.8l3-3.2c.41-.41.57-.49.82-.49s.58.16,1.23.57c1.72,1.15,3.94,2.63,6,4.1.33.25.41.41.41.66a.72.72,0,0,1-.74.57H171.3a45.88,45.88,0,0,1,3.77,4.84c7.14,10.17,17.14,18.37,30.51,19.85-.82,1.56-3.28,2.62-5,2.87-2,.25-2.46.49-3.53,1.48a2.1,2.1,0,0,1-1.39.65A6,6,0,0,1,193.44,67c-7.21-4.68-13.36-11.81-19.76-22.39A29.34,29.34,0,0,0,170,39.19V49.28c0,5.66.33,14.35.49,18,.08,2.3.16,4.68.16,5.5C170.64,74.46,169.09,77.17,167.28,77.17Z"/><path class="cls-2" d="M266.83,43.87c-3.2,19.27-16.4,29.6-38.14,32.89l-.32-.91C248.79,70,259.2,59.7,262.32,43.7H238.7c-1.39,0-4.18.17-5.58,1.23a6.74,6.74,0,0,1-4.26-4,36.66,36.66,0,0,0,7.79.57h6.48V27.14a91,91,0,0,0-.58-12.39c2.3,1.07,3.78,1.81,5.17,2.63a2.46,2.46,0,0,1,.82.66H263.8c-.09-2.38-.17-5.58-.25-9a38.92,38.92,0,0,0-.9-7.62c2.87.9,4.75,1.55,6.8,2.29.82.33,1.07.74,1.07,1.07,0,.74-1.07,1.39-2.46,2.21V18H284l1.64-1.81c.41-.41.74-.66,1-.66a2.67,2.67,0,0,1,1.15.5c1.15.74,2,1.31,3,2.13.34.24.66.49.66.9s-.9,1.4-1.88,2.3V41.49h5.16l2.79-2.79a1.48,1.48,0,0,1,.9-.49,3,3,0,0,1,1.15.57c1.72,1.15,3.53,2.55,4.92,3.7a1,1,0,0,1,.49.73c0,.25-.32.49-.65.49H268.8a21.72,21.72,0,0,1,2.54,3.69,82.41,82.41,0,0,0,6.56,9.68c6.32,7.79,15.67,13.29,27.56,15-1,1.64-3.2,2.71-5.91,2.87a4.14,4.14,0,0,0-2.54.9,3.57,3.57,0,0,1-1.56.82c-1.06,0-2.71-1-5.08-2.37-9.6-5.66-15.51-14.6-20.83-26.17A20.6,20.6,0,0,0,266.83,43.87Zm-3-23.62H247.72V41.49h14.93a21.38,21.38,0,0,0,.32-2.38A174.26,174.26,0,0,0,263.8,20.25Zm3.36,21.24h18V20.25H268.06c-.08,6.89-.25,12.55-.66,18.45C267.32,39.85,267.24,40.67,267.16,41.49Z"/><path class="cls-2" d="M365.64,17.54H358a51.35,51.35,0,0,1-34.44,26.82l-.41-.82c14.43-5.25,24.52-16.65,29.85-26H338.82c-1.39,0-4.18.17-5.58,1.23a6.73,6.73,0,0,1-4.26-4,36,36,0,0,0,7.79.58h17.39a41.65,41.65,0,0,0,2.54-6.4,22.48,22.48,0,0,0,.9-5.57c0-.42-.08-1.15-.16-1.81,2.54,1.07,5.16,2.22,7.13,3.2.66.33,1,.66,1,1,0,.82-2,1.56-3.28,2.05a59.62,59.62,0,0,1-3.12,7.55h24.19l2.79-2.79a1.45,1.45,0,0,1,.9-.49,3,3,0,0,1,1.15.57c1.64,1.15,3.36,2.46,4.92,3.69a1,1,0,0,1,.49.74c0,.25-.32.49-.65.49H367.69a44.39,44.39,0,0,1,4,3.86c8,8.36,15.33,14.68,28.29,17.22-.74,1.39-2.38,1.89-4.18,2a2.81,2.81,0,0,0-2.3,1.06c-.24.33-.74.91-1.31.91a8.05,8.05,0,0,1-3.45-1.48c-7.05-4.26-12.87-10.41-19.1-18.94A26.26,26.26,0,0,0,365.64,17.54ZM328.16,70.19c7.22-3.85,13-8.77,15.91-13.94a9.8,9.8,0,0,0,1.07-4.43c3.36,2.14,5.49,3.61,6.31,4.27a1.26,1.26,0,0,1,.57.9c0,1.07-2.29,1.23-3.69,1.31C343.91,63.39,337.92,68,328.49,71ZM357.93,77a11.66,11.66,0,0,0-4.68-3.36,16.22,16.22,0,0,1-5.74-4.51l.33-.82a23.81,23.81,0,0,0,9.52,2.54c2.21,0,2.87-1.31,2.87-4.43V55.6c0-1.23,0-2.46-.09-3.53a30.3,30.3,0,0,0-.57-4.35h-15c-1.39,0-4.18.17-5.58,1.23a7,7,0,0,1-4.26-4,36,36,0,0,0,7.79.58h36.33l2.46-2.38a1.48,1.48,0,0,1,.82-.49c.33,0,.58.16,1.15.57,1.48,1.07,3.12,2.38,4.35,3.37.41.32.49.49.49.65s-.25.49-.74.49H363.26a20.81,20.81,0,0,1,2.79,1.15,1,1,0,0,1,.65.9c0,.58-1,1.15-2.21,1.81-.08.9-.16,3.2-.16,4,0,2.13,0,4.92.08,7.62s.08,5.58.08,6.4C364.49,72.9,362,74.87,357.93,77Zm16.89-41.09H357.19c-1.39,0-4.18.17-5.57,1.23a6.94,6.94,0,0,1-4.27-4,36,36,0,0,0,7.79.58H367.2l2.37-2.3a1.4,1.4,0,0,1,.74-.41c.25,0,.49.09,1,.49,1.31,1.07,2.87,2.38,3.85,3.37.25.24.41.41.41.57C375.56,35.75,375.23,35.91,374.82,35.91Zm-3.6,17.23c12,4,17.46,9.51,17.46,13.2,0,2.79-1.15,3.61-2.21,3.61-1.4,0-2.46-1.31-3.28-2.79A35.92,35.92,0,0,0,370.89,54Z"/></g></g><path class="cls-2" d="M7.71,116.53a9.08,9.08,0,0,1,0-12.3,7.66,7.66,0,0,1,5.8-2.56,7.7,7.7,0,0,1,5.81,2.56,9,9,0,0,1,0,12.3,7.72,7.72,0,0,1-5.81,2.55A7.69,7.69,0,0,1,7.71,116.53Zm5.41-13.78a4.39,4.39,0,0,0-3.85,2.13,8.7,8.7,0,0,0-1.42,4.94,11.07,11.07,0,0,0,.67,3.88,7.26,7.26,0,0,0,2.08,3A4.9,4.9,0,0,0,13.92,118a4.26,4.26,0,0,0,2.88-1.06,6.35,6.35,0,0,0,1.81-2.65,9.68,9.68,0,0,0,.58-3.38,10.93,10.93,0,0,0-.67-3.87,7.26,7.26,0,0,0-2.08-3A4.93,4.93,0,0,0,13.12,102.75Z"/><path class="cls-2" d="M45.07,101a2.6,2.6,0,0,1,2.44,1q0,1.62-.93,1.62a.84.84,0,0,1-.64-.4,9.79,9.79,0,0,0-.71-.81,1.28,1.28,0,0,0-1-.41,2,2,0,0,0-1.75,1.39,8.05,8.05,0,0,0-.61,3.27v1.31c0,.08,0,.13.12.13h2.86c.08,0,.13.06.13.18a2.58,2.58,0,0,1-.31,1H42.06a.13.13,0,0,0-.15.15v5.94a9.13,9.13,0,0,0,.23,2.29c0,.12.24.23.63.35a3.33,3.33,0,0,0,.81.16c.05,0,.08.11.1.31a.93.93,0,0,1,0,.44l-2.75-.13-2.7.13a.5.5,0,0,1-.07-.25,1,1,0,0,1,0-.34c0-.11,0-.16.07-.16a3.36,3.36,0,0,0,.88-.16c.37-.12.58-.23.61-.35a9.31,9.31,0,0,0,.26-2.29v-5.91c0-.12,0-.18-.13-.18H38.46c-.05,0-.08-.06-.08-.16a1.15,1.15,0,0,1,.41-.64,1.22,1.22,0,0,1,.88-.41h.15c.09,0,.13,0,.13-.16v-.33a7.13,7.13,0,0,1,1.61-4.66A4.56,4.56,0,0,1,45.07,101Z"/><path class="cls-2" d="M67.87,101a2.6,2.6,0,0,1,2.44,1c0,1.08-.31,1.62-.92,1.62a.84.84,0,0,1-.65-.4c-.2-.26-.44-.53-.7-.81a1.32,1.32,0,0,0-1-.41,2,2,0,0,0-1.75,1.39,8.05,8.05,0,0,0-.61,3.27v1.31a.12.12,0,0,0,.13.13h2.85c.09,0,.13.06.13.18a2.58,2.58,0,0,1-.31,1H64.86a.13.13,0,0,0-.15.15v5.94a9.13,9.13,0,0,0,.23,2.29c0,.12.24.23.63.35a3.33,3.33,0,0,0,.81.16c.05,0,.08.11.1.31a1.13,1.13,0,0,1,0,.44l-2.76-.13-2.7.13a.5.5,0,0,1-.07-.25,1,1,0,0,1,0-.34c0-.11,0-.16.07-.16a3.36,3.36,0,0,0,.88-.16c.38-.12.58-.23.61-.35a8.85,8.85,0,0,0,.26-2.29v-5.91c0-.12,0-.18-.13-.18H61.26s-.08-.06-.08-.16a1.15,1.15,0,0,1,.41-.64,1.22,1.22,0,0,1,.88-.41h.15c.09,0,.13,0,.13-.16v-.33a7.13,7.13,0,0,1,1.61-4.66A4.56,4.56,0,0,1,67.87,101Z"/><path class="cls-2" d="M87.69,115.35a9.55,9.55,0,0,0,.21,2.29c0,.12.25.23.66.35a3.91,3.91,0,0,0,.88.16s.08.11.1.31a.93.93,0,0,1,0,.44l-2.75-.13-2.8.13a.63.63,0,0,1-.1-.43c0-.21,0-.32.1-.32a3.68,3.68,0,0,0,.91-.16c.41-.12.62-.23.66-.35a7.81,7.81,0,0,0,.18-1.8V111a2.05,2.05,0,0,0-.36-1.39,1.22,1.22,0,0,0-.63-.42,2.14,2.14,0,0,0-.62-.12c-.16,0-.24,0-.24,0,0-.41,0-.63.15-.64a31.8,31.8,0,0,0,3.55-.67l0,0h.08c.07,0,.11.07.13.22a1.65,1.65,0,0,1,0,.32,14.3,14.3,0,0,0-.13,1.85Zm-2.1-10.86a1.29,1.29,0,0,1-.37-.92,1.27,1.27,0,0,1,.37-.91,1.25,1.25,0,0,1,.92-.37,1.26,1.26,0,0,1,1.28,1.28,1.25,1.25,0,0,1-.37.92,1.27,1.27,0,0,1-.91.37A1.29,1.29,0,0,1,85.59,104.49Z"/><path class="cls-2" d="M110.69,107.61c1.88,0,3.19.44,3.91,1.31,0,1.15-.32,1.72-.95,1.72a1,1,0,0,1-.67-.19,3.49,3.49,0,0,1-.59-.71,2.32,2.32,0,0,0-1.91-1.18,2.51,2.51,0,0,0-1.91,1,4.46,4.46,0,0,0-.86,3,5.55,5.55,0,0,0,1,3.42,3.32,3.32,0,0,0,2.82,1.36,4.93,4.93,0,0,0,1-.1,4.57,4.57,0,0,0,.83-.25,4.72,4.72,0,0,0,.59-.28,3.22,3.22,0,0,0,.43-.27l.18-.13c.1,0,.15.11.15.34a1,1,0,0,1-.15.46,4.85,4.85,0,0,1-1.52,1.3,4.36,4.36,0,0,1-2.18.58,4.89,4.89,0,0,1-3.67-1.61,5.47,5.47,0,0,1-1.53-3.92,6.66,6.66,0,0,1,1.29-4.1A4.31,4.31,0,0,1,110.69,107.61Z"/><path class="cls-2" d="M134.62,115.35a9.64,9.64,0,0,0,.2,2.29c0,.12.26.23.67.35a3.82,3.82,0,0,0,.88.16s.08.11.1.31a1.08,1.08,0,0,1,0,.44l-2.75-.13-2.8.13a.62.62,0,0,1-.11-.43c0-.21,0-.32.11-.32a3.76,3.76,0,0,0,.91-.16c.4-.12.62-.23.66-.35a7.81,7.81,0,0,0,.18-1.8V111a2.05,2.05,0,0,0-.36-1.39,1.3,1.3,0,0,0-.63-.42,2.14,2.14,0,0,0-.62-.12c-.16,0-.25,0-.25,0,0-.41.06-.63.16-.64a31.8,31.8,0,0,0,3.55-.67l0,0h.08c.06,0,.11.07.12.22a.83.83,0,0,1,0,.32,16.15,16.15,0,0,0-.12,1.85Zm-2.1-10.86a1.25,1.25,0,0,1-.37-.92,1.26,1.26,0,0,1,1.28-1.28,1.25,1.25,0,0,1,.92.37,1.27,1.27,0,0,1,.37.91,1.26,1.26,0,0,1-1.29,1.29A1.27,1.27,0,0,1,132.52,104.49Z"/><path class="cls-2" d="M157.7,107.61a2.64,2.64,0,0,1,2,.68,3.25,3.25,0,0,1,.61,2.2v5.94a1.41,1.41,0,0,0,.29.9.92.92,0,0,0,.77.36,1.75,1.75,0,0,0,.9-.36c.07,0,.1.07.1.21a1,1,0,0,1-.13.54,3,3,0,0,1-1.8.9,1.71,1.71,0,0,1-1.13-.49,2.65,2.65,0,0,1-.74-1s-.09.05-.2.17a4,4,0,0,1-.45.38,7.31,7.31,0,0,1-.65.45,3.76,3.76,0,0,1-.88.39,3.48,3.48,0,0,1-1,.15,3,3,0,0,1-2-.63,2.31,2.31,0,0,1-.77-1.89,2.14,2.14,0,0,1,.28-1.07,3,3,0,0,1,.67-.82,5.64,5.64,0,0,1,1.06-.65,10,10,0,0,1,1.14-.51l1.25-.42q.76-.26,1.08-.39a.36.36,0,0,0,.23-.38v-1.93a1.57,1.57,0,0,0-.52-1.27,1.79,1.79,0,0,0-1.23-.45,1.75,1.75,0,0,0-1.29.52,1.91,1.91,0,0,0-.51,1.38q0,.9-1.05.9a1.07,1.07,0,0,1-1-.49c0-.74.54-1.47,1.62-2.2A5.83,5.83,0,0,1,157.7,107.61Zm-2.42,9.55a1.68,1.68,0,0,0,1.13.38,2.44,2.44,0,0,0,1.34-.43c.42-.28.64-.57.64-.86V113.6a9.12,9.12,0,0,1-1,.36,13.24,13.24,0,0,0-1.25.45,2.63,2.63,0,0,0-.87.64,1.46,1.46,0,0,0-.43,1A1.32,1.32,0,0,0,155.28,117.16Z"/><path class="cls-2" d="M179.59,115.84V104.7a8.55,8.55,0,0,0-.15-1.64c-.09-.28-.53-.41-1.32-.41h-.23c-.1,0-.15-.1-.15-.29s0-.41.15-.41c.52,0,1-.12,1.43-.2a8,8,0,0,0,1-.26l.63-.24.38-.2.11-.07h.05a.24.24,0,0,1,.2.14.56.56,0,0,1,.13.27,7,7,0,0,0-.28,2.23v11.73a9.55,9.55,0,0,0,.21,2.29c0,.12.25.23.66.35a4,4,0,0,0,.88.16c.05,0,.09.11.1.31a1.13,1.13,0,0,1,0,.44l-2.76-.13-2.8.13a.63.63,0,0,1-.1-.43c0-.21,0-.32.1-.32a3.68,3.68,0,0,0,.91-.16c.41-.12.63-.23.66-.35A7.81,7.81,0,0,0,179.59,115.84Z"/><path class="cls-2" d="M268.73,107.61a4.63,4.63,0,0,1,2.09.45,3.51,3.51,0,0,1,1.37,1.16,5.31,5.31,0,0,1,.7,1.44,5.24,5.24,0,0,1,.21,1.45q0,.51-.15.63a1,1,0,0,1-.59.12h-6.48q-.21,0-.21.12a5,5,0,0,0,1,3,3.25,3.25,0,0,0,2.83,1.36,4.93,4.93,0,0,0,1-.1,4.57,4.57,0,0,0,.83-.25,4.72,4.72,0,0,0,.59-.28,3.22,3.22,0,0,0,.43-.27l.18-.13c.1,0,.15.11.15.34a1,1,0,0,1-.15.46,4.74,4.74,0,0,1-1.52,1.3,4.36,4.36,0,0,1-2.18.58,4.89,4.89,0,0,1-3.67-1.61,5.47,5.47,0,0,1-1.53-3.92,6.07,6.07,0,0,1,1.45-4.27A4.75,4.75,0,0,1,268.73,107.61Zm-.25,1a2.25,2.25,0,0,0-2.05,1.15,3.88,3.88,0,0,0-.71,1.89c0,.12.06.18.16.18h5c.09,0,.13-.09.13-.26a3.6,3.6,0,0,0-.69-1.89A2.12,2.12,0,0,0,268.48,108.56Z"/><path class="cls-2" d="M295.13,107.56a4.78,4.78,0,0,1,3.87,1.68,5.56,5.56,0,0,1,1.4,3.59,5.93,5.93,0,0,1-1.81,4.29,5.49,5.49,0,0,1-4,1.86,9.51,9.51,0,0,1-1.81-.17c-.58-.11-.91-.17-1-.17a1.67,1.67,0,0,0-.57.14,1.8,1.8,0,0,1-.4.14,1,1,0,0,1-.32-.07c-.15,0-.22-.11-.22-.18a3.88,3.88,0,0,1,.08-.43q.07-.39.15-1.17c.05-.51.08-1.09.08-1.72V104.7a7.8,7.8,0,0,0-.16-1.64c-.08-.28-.52-.41-1.31-.41h-.23c-.1,0-.15-.1-.15-.29s0-.41.15-.41c.51,0,1-.12,1.43-.2a7.74,7.74,0,0,0,1-.26l.64-.24.38-.2.1-.07h.06a.27.27,0,0,1,.2.14.67.67,0,0,1,.13.27,7,7,0,0,0-.28,2.23v4.5c0,.19,0,.29.08.29l.07,0a5.21,5.21,0,0,1,1.11-.54A3.68,3.68,0,0,1,295.13,107.56Zm-.82,1.26a1.94,1.94,0,0,0-1.24.4,1.35,1.35,0,0,0-.51,1.14v6a1.22,1.22,0,0,0,.76,1.17,3.9,3.9,0,0,0,1.76.38,2.57,2.57,0,0,0,2.29-1.39,6.13,6.13,0,0,0,.82-3.14,4.93,4.93,0,0,0-1.07-3.29A3.5,3.5,0,0,0,294.31,108.82Z"/><path class="cls-2" d="M321.09,107.58a8.57,8.57,0,0,1,1.42.15l1.2.19a15.56,15.56,0,0,1,.31,2.62c0,.09-.12.13-.34.13s-.37-.06-.38-.18a2.67,2.67,0,0,0-.74-1.36,1.84,1.84,0,0,0-1.37-.65c-1.24,0-1.85.51-1.85,1.52a2,2,0,0,0,.1.68,1.39,1.39,0,0,0,.4.57,5.72,5.72,0,0,0,.45.38,6.79,6.79,0,0,0,.68.42l.66.37.6.35.71.42c.13.09.34.23.6.44a2.84,2.84,0,0,1,.58.55,3.8,3.8,0,0,1,.35.62,1.87,1.87,0,0,1,.17.76,3.21,3.21,0,0,1-1.19,2.53,4.11,4.11,0,0,1-2.78,1,7.26,7.26,0,0,1-1-.06,10.8,10.8,0,0,1-1.07-.22c-.41-.1-.73-.17-.95-.2a6.53,6.53,0,0,1-.3-1.29,9.77,9.77,0,0,1-.14-1.39.64.64,0,0,1,.31-.15c.25,0,.39,0,.41.15a2.81,2.81,0,0,0,1,1.51,2.62,2.62,0,0,0,1.76.73,2,2,0,0,0,1.35-.45,1.59,1.59,0,0,0,.53-1.3,2,2,0,0,0-.16-.81,1.92,1.92,0,0,0-.55-.67,6,6,0,0,0-.69-.49c-.21-.13-.52-.29-.91-.5s-.69-.37-.88-.49c-1.33-.77-2-1.69-2-2.75a2.73,2.73,0,0,1,1.12-2.26A4.11,4.11,0,0,1,321.09,107.58Z"/><path class="cls-2" d="M344.86,115.35a9.55,9.55,0,0,0,.21,2.29c0,.12.25.23.66.35a3.91,3.91,0,0,0,.88.16c.05,0,.08.11.1.31a1.13,1.13,0,0,1,0,.44l-2.76-.13-2.8.13a.63.63,0,0,1-.1-.43c0-.21,0-.32.1-.32A3.68,3.68,0,0,0,342,118c.41-.12.62-.23.66-.35a7.81,7.81,0,0,0,.18-1.8V111a2.05,2.05,0,0,0-.36-1.39,1.22,1.22,0,0,0-.63-.42,2.08,2.08,0,0,0-.62-.12c-.16,0-.24,0-.24,0,0-.41.05-.63.15-.64a31.8,31.8,0,0,0,3.55-.67l0,0h.08c.07,0,.11.07.13.22a.83.83,0,0,1,0,.32,14.3,14.3,0,0,0-.13,1.85Zm-2.1-10.86a1.29,1.29,0,0,1-.37-.92,1.27,1.27,0,0,1,.37-.91,1.25,1.25,0,0,1,.92-.37,1.26,1.26,0,0,1,1.28,1.28,1.25,1.25,0,0,1-.37.92,1.27,1.27,0,0,1-.91.37A1.29,1.29,0,0,1,342.76,104.49Z"/><path class="cls-2" d="M364,109.2h-1.49c-.09,0-.13-.18-.13-.54a.53.53,0,0,1,0-.18,4.81,4.81,0,0,0,1.62-1.36,7.15,7.15,0,0,0,.56-.76c.18-.28.33-.52.45-.73s.18-.32.18-.33c.51,0,.77,0,.77.12V108h2l1.44,0c.14,0,.2.07.2.23a2.15,2.15,0,0,1-.25,1H366v6.3a2.45,2.45,0,0,0,.52,1.65,1.74,1.74,0,0,0,1.38.62,3.15,3.15,0,0,0,1.59-.49c.06,0,.13,0,.24.22s.14.28.12.29a3.89,3.89,0,0,1-1.18.81,3.58,3.58,0,0,1-1.64.4,2.92,2.92,0,0,1-2.15-.85,3.2,3.2,0,0,1-.86-2.41Z"/><path class="cls-2" d="M390.84,107.61a4.61,4.61,0,0,1,2.08.45,3.44,3.44,0,0,1,1.37,1.16,5.1,5.1,0,0,1,.92,2.89c0,.34,0,.55-.16.63a1,1,0,0,1-.59.12H388c-.14,0-.2,0-.2.12a5,5,0,0,0,1,3,3.27,3.27,0,0,0,2.83,1.36,4.93,4.93,0,0,0,1-.1,4.69,4.69,0,0,0,.84-.25,5.51,5.51,0,0,0,.59-.28,3.84,3.84,0,0,0,.42-.27l.18-.13c.1,0,.16.11.16.34a1,1,0,0,1-.16.46,4.81,4.81,0,0,1-1.51,1.3,4.37,4.37,0,0,1-2.19.58,4.87,4.87,0,0,1-3.66-1.61,5.44,5.44,0,0,1-1.54-3.92,6,6,0,0,1,1.46-4.27A4.74,4.74,0,0,1,390.84,107.61Zm-.26,1a2.28,2.28,0,0,0-2.05,1.15,3.84,3.84,0,0,0-.7,1.89q0,.18.15.18h5c.08,0,.13-.09.13-.26a3.63,3.63,0,0,0-.7-1.89A2.12,2.12,0,0,0,390.58,108.56Z"/><path class="cls-2" d="M250.58,101.83l-.77,0-.79.05c-.26,0-.58,0-1,0s-1.25,0-2.62-.13a.61.61,0,0,0-.1.42c0,.22,0,.32.1.32a2.4,2.4,0,0,1,.94.22c.35.15.53.36.53.65a4.69,4.69,0,0,1-.44,1.62l-4.6,10.55c-.1.28-.2.32-.3.13l-5.11-10.52a5,5,0,0,1-.59-1.9.56.56,0,0,1,.29-.49,1.66,1.66,0,0,1,.54-.22,2.37,2.37,0,0,1,.43,0s.08-.1.09-.32a1.3,1.3,0,0,0,0-.42l-2.67.13-3.24-.13a.55.55,0,0,0-.1.36c0,.25,0,.38.1.38a2.67,2.67,0,0,1,.8.17,1.51,1.51,0,0,1,.69.42,14.45,14.45,0,0,1,1.49,2.47l2.21,4.55-2.59,5.4a.39.39,0,0,1-.18.2.15.15,0,0,1-.21-.07l-5.31-10.52a4.4,4.4,0,0,1-.59-1.9.57.57,0,0,1,.3-.48,1.41,1.41,0,0,1,.55-.23,4,4,0,0,1,.43,0c.06,0,.09-.1.09-.32a1.13,1.13,0,0,0,0-.42l-2.7.13L223,101.8a.57.57,0,0,0-.11.41c0,.22,0,.33.11.33a2.62,2.62,0,0,1,.79.17,1.41,1.41,0,0,1,.69.42,13.84,13.84,0,0,1,1.49,2.47l6.68,13.27a.26.26,0,0,0,.23.13c.41,0,.74-.28,1-.82l3.23-6.69.11.22.38.77,3.13,6.42a.26.26,0,0,0,.23.13c.41,0,.75-.28,1-.82l5.44-12.33a10.88,10.88,0,0,1,1.49-2.59,1.91,1.91,0,0,1,.85-.53,3.27,3.27,0,0,1,.82-.19c.07,0,.1-.12.1-.36A1.06,1.06,0,0,0,250.58,101.83Z"/></svg>