<svg id="レイヤー_1" data-name="レイヤー 1" xmlns="http://www.w3.org/2000/svg" viewBox="0 0 436 146"><defs><style>.cls-1{fill:#6a6a6a;}</style></defs><path class="cls-1" d="M56,143v-3.26l0-.07c-1.16,0-2.08,0-2.75,0a17,17,0,0,0-2.85.09V143a7.14,7.14,0,0,0,.17,1.72c0,.09.19.17.52.25a3.31,3.31,0,0,0,.66.12s.06.08.07.23a1.14,1.14,0,0,1,0,.31l-2.15-.09-2.22.09a.39.39,0,0,1-.08-.28c0-.17,0-.26.08-.26a3.06,3.06,0,0,0,.71-.11c.31-.07.49-.16.53-.26a7.7,7.7,0,0,0,.13-1.65v-7.19a7.7,7.7,0,0,0-.13-1.65c0-.1-.22-.19-.53-.27a3.22,3.22,0,0,0-.71-.12s-.08-.08-.08-.24a.43.43,0,0,1,.08-.3l1,.07c.49,0,.91,0,1.24,0s.49,0,.72,0l.76,0,.67-.05a1,1,0,0,1,0,.31c0,.15,0,.23-.07.23a2.88,2.88,0,0,0-.66.13c-.33.09-.5.17-.52.26a7.2,7.2,0,0,0-.17,1.72v2.77l0,.05c1.21,0,2.15,0,2.81,0s1.64,0,2.75,0a.13.13,0,0,0,0-.07v-2.82a7.7,7.7,0,0,0-.13-1.65c0-.1-.22-.19-.53-.27a3.28,3.28,0,0,0-.72-.12s-.07-.08-.07-.23a.45.45,0,0,1,.07-.31l1,.07c.5,0,.92,0,1.26,0s.47,0,.7,0l.75,0,.66-.05a.79.79,0,0,1,0,.28c0,.17,0,.26-.08.26a2.88,2.88,0,0,0-.66.13c-.33.09-.5.17-.52.26a7.32,7.32,0,0,0-.15,1.72v7a7.32,7.32,0,0,0,.15,1.72c0,.09.19.17.52.25A3.31,3.31,0,0,0,59,145s.08.1.08.28a.68.68,0,0,1,0,.26l-2.11-.09-2.25.09a.44.44,0,0,1-.07-.3c0-.16,0-.24.07-.24a3.13,3.13,0,0,0,.72-.11c.31-.07.49-.16.53-.26A7.7,7.7,0,0,0,56,143Z"/><path class="cls-1" d="M69.29,137.42a3.89,3.89,0,0,1,2.86,1.21,4,4,0,0,1,1.18,2.89,4,4,0,0,1-1.16,2.92,3.77,3.77,0,0,1-2.84,1.22,3.89,3.89,0,0,1-2.88-1.22,4.23,4.23,0,0,1,0-5.83A3.82,3.82,0,0,1,69.29,137.42Zm-.2.73a1.89,1.89,0,0,0-1.61.9,3.79,3.79,0,0,0-.62,2.19,4.3,4.3,0,0,0,.79,2.61,2.27,2.27,0,0,0,1.84,1.08,1.9,1.9,0,0,0,1.62-.92,3.87,3.87,0,0,0,.63-2.23,4.18,4.18,0,0,0-.8-2.57A2.28,2.28,0,0,0,69.09,138.15Z"/><path class="cls-1" d="M84.26,137.42a1.63,1.63,0,0,1,1.45.54,1.69,1.69,0,0,1-.21.95.59.59,0,0,1-.5.29.81.81,0,0,1-.61-.31,1,1,0,0,0-.76-.32,1.25,1.25,0,0,0-1,.54,1.84,1.84,0,0,0-.43,1.13V143a6.89,6.89,0,0,0,.15,1.65c0,.09.19.17.49.25a3.08,3.08,0,0,0,.64.12s.06.08.08.23a.89.89,0,0,1,0,.31l-2-.09-2,.09a.44.44,0,0,1-.07-.3c0-.16,0-.24.07-.24a2.72,2.72,0,0,0,.66-.12c.29-.08.45-.16.48-.25a6,6,0,0,0,.13-1.3v-3.5a1.48,1.48,0,0,0-.26-1,1,1,0,0,0-.46-.31,1.79,1.79,0,0,0-.44-.08c-.12,0-.18,0-.18,0,0-.29,0-.45.11-.46a23.15,23.15,0,0,0,2.56-.48l.09,0s.08.05.1.16a.86.86,0,0,1,0,.23l-.12.93a3.88,3.88,0,0,1,.92-.94A2,2,0,0,1,84.26,137.42Z"/><path class="cls-1" d="M94.65,143a6.89,6.89,0,0,0,.15,1.65c0,.09.19.17.48.25a2.91,2.91,0,0,0,.63.12s.06.08.08.23a.89.89,0,0,1,0,.31l-2-.09-2,.09a.44.44,0,0,1-.07-.3c0-.16,0-.24.07-.24a2.72,2.72,0,0,0,.66-.12c.29-.08.45-.16.47-.25a5.43,5.43,0,0,0,.13-1.3v-3.5a1.49,1.49,0,0,0-.25-1,1,1,0,0,0-.46-.31,1.79,1.79,0,0,0-.44-.08c-.12,0-.18,0-.18,0,0-.29,0-.45.11-.46a23.67,23.67,0,0,0,2.56-.48l0,0h.05s.08.05.09.16a.44.44,0,0,1,0,.23,11.12,11.12,0,0,0-.09,1.33Zm-1.51-7.83a.94.94,0,1,1,.66.27A.9.9,0,0,1,93.14,135.19Z"/><path class="cls-1" d="M114,133.34q.69,0,1.71-.09.12.44,3.67,9.29a.07.07,0,0,0,.07,0,.11.11,0,0,0,.1-.08q1.82-4.26,2.89-7l.74-2.23c.79.05,1.3.08,1.54.08.76,0,1.46,0,2.07-.08a.88.88,0,0,1,.06.28c0,.17,0,.26-.09.26h0a1.66,1.66,0,0,0-.54.12,1.77,1.77,0,0,0-.5.25c-.15.11-.22.53-.22,1.24,0,.2,0,2.71.17,7.53a5,5,0,0,0,.27,1.71c0,.11.24.2.56.28a3.28,3.28,0,0,0,.69.12s.07.09.07.26a.75.75,0,0,1,0,.28l-2.2-.09-2.23.09a.44.44,0,0,1-.07-.3c0-.16,0-.24.07-.24a2.76,2.76,0,0,0,.57-.09,2.7,2.7,0,0,0,.55-.18c.14-.09.22-.36.22-.8v-1l-.22-6.53a5.81,5.81,0,0,0-.11-.7c0-.26-.11-.39-.17-.39s-.06,0-.1.13l-3.87,9.27c-.24.53-.46.79-.69.79l-.16,0-4.25-10.79c0,1.18-.06,2.54-.11,4.07s-.09,2.8-.13,3.8-.06,1.5-.06,1.52a.78.78,0,0,0,.12.49,1.28,1.28,0,0,0,.67.28,3.57,3.57,0,0,0,.75.14s.08.1.08.28a1,1,0,0,1,0,.26l-2.15-.09-2.17.09a.38.38,0,0,1-.09-.28c0-.17,0-.26.09-.26a3.72,3.72,0,0,0,.77-.12,1.52,1.52,0,0,0,.68-.28,3,3,0,0,0,.33-1.62c0-1.28,0-2.55.08-3.8s.06-2.23.09-2.94,0-1.16,0-1.36a2.93,2.93,0,0,0-.07-.74q-.06-.15-.63-.27a4.6,4.6,0,0,0-.83-.12c-.05,0-.08-.09-.08-.26a.39.39,0,0,1,.08-.28l.69,0,.7,0Z"/><path class="cls-1" d="M136.39,143a6.89,6.89,0,0,0,.15,1.65c0,.09.18.17.48.25a2.91,2.91,0,0,0,.63.12s.06.08.07.23a.58.58,0,0,1,0,.31l-2-.09-2,.09a.44.44,0,0,1-.07-.3c0-.16,0-.24.07-.24a2.72,2.72,0,0,0,.66-.12c.29-.08.45-.16.47-.25a5.43,5.43,0,0,0,.13-1.3v-3.5a1.48,1.48,0,0,0-.26-1,.94.94,0,0,0-.45-.31,1.78,1.78,0,0,0-.45-.08c-.12,0-.17,0-.17,0,0-.29,0-.45.11-.46a23.67,23.67,0,0,0,2.56-.48l0,0h.06c.05,0,.08.05.09.16a.86.86,0,0,1,0,.23,11.12,11.12,0,0,0-.09,1.33Zm-1.51-7.83a.93.93,0,0,1,.66-1.59.88.88,0,0,1,.65.27.94.94,0,0,1,0,1.32.88.88,0,0,1-.65.27A.9.9,0,0,1,134.88,135.19Z"/><path class="cls-1" d="M147.58,137.42a3.88,3.88,0,0,1,2.86,1.21,4,4,0,0,1,1.19,2.89,4.09,4.09,0,0,1-1.16,2.92,3.81,3.81,0,0,1-2.85,1.22,3.87,3.87,0,0,1-2.87-1.22,4.22,4.22,0,0,1,0-5.83A3.84,3.84,0,0,1,147.58,137.42Zm-.2.73a1.86,1.86,0,0,0-1.6.9,3.72,3.72,0,0,0-.63,2.19,4.37,4.37,0,0,0,.79,2.61,2.27,2.27,0,0,0,1.85,1.08,1.9,1.9,0,0,0,1.61-.92,3.87,3.87,0,0,0,.63-2.23,4.18,4.18,0,0,0-.8-2.57A2.28,2.28,0,0,0,147.38,138.15Z"/><path class="cls-1" d="M163.13,137.4a1.92,1.92,0,0,1,1.82.93,6.57,6.57,0,0,1,.52,3V143a7,7,0,0,0,.14,1.65c0,.09.19.17.49.25a2.71,2.71,0,0,0,.63.12s.06.08.07.23a.7.7,0,0,1,0,.31l-2-.09-2,.09a.44.44,0,0,1-.07-.3c0-.16,0-.24.07-.24a2.27,2.27,0,0,0,.62-.12c.27-.08.41-.16.44-.25a6,6,0,0,0,.13-1.3v-1.85a4.32,4.32,0,0,0-.45-2.35,1.64,1.64,0,0,0-1.44-.63A1.78,1.78,0,0,0,161,139c-.37.29-.55.55-.55.79V143a6.89,6.89,0,0,0,.15,1.65c0,.09.18.17.48.25a2.91,2.91,0,0,0,.63.12s.06.08.07.23a.73.73,0,0,1,0,.31l-2-.09-2,.09a.44.44,0,0,1-.07-.3c0-.16,0-.24.07-.24a2.72,2.72,0,0,0,.66-.12c.29-.08.45-.16.47-.25a5.43,5.43,0,0,0,.13-1.3v-3.5a1.48,1.48,0,0,0-.26-1,.94.94,0,0,0-.45-.31,1.78,1.78,0,0,0-.45-.08c-.12,0-.17,0-.17,0,0-.29,0-.45.11-.46a23.67,23.67,0,0,0,2.56-.48l.09,0s.08.05.09.16a.86.86,0,0,1,0,.23,5.56,5.56,0,0,0-.07.74s0,.07,0,.07l.06,0a4.65,4.65,0,0,1,1.16-.85A3,3,0,0,1,163.13,137.4Z"/><path class="cls-1" d="M176.68,137.44a1.9,1.9,0,0,1,1.46.49,2.32,2.32,0,0,1,.45,1.59v4.28a1,1,0,0,0,.2.65.68.68,0,0,0,.56.26,1.31,1.31,0,0,0,.65-.26c.05,0,.07.05.07.15a.75.75,0,0,1-.09.39,2.22,2.22,0,0,1-1.3.65,1.21,1.21,0,0,1-.82-.36,1.89,1.89,0,0,1-.53-.74s-.06,0-.14.12a2.63,2.63,0,0,1-.33.28,5.33,5.33,0,0,1-.47.33,2.6,2.6,0,0,1-.63.27,2.33,2.33,0,0,1-.73.12,2.17,2.17,0,0,1-1.41-.46,1.66,1.66,0,0,1-.56-1.36,1.51,1.51,0,0,1,.21-.77,1.88,1.88,0,0,1,.48-.59,3.58,3.58,0,0,1,.76-.48,7.15,7.15,0,0,1,.82-.36l.9-.3.78-.28a.26.26,0,0,0,.17-.28v-1.39a1.18,1.18,0,0,0-.37-.92,1.35,1.35,0,0,0-.89-.32,1.23,1.23,0,0,0-.93.38,1.34,1.34,0,0,0-.37,1c0,.43-.25.65-.76.65a.76.76,0,0,1-.72-.35c0-.54.39-1.06,1.16-1.59A4.18,4.18,0,0,1,176.68,137.44Zm-1.75,6.89a1.23,1.23,0,0,0,.82.27,1.68,1.68,0,0,0,1-.31c.31-.2.47-.41.47-.62v-1.91a5.86,5.86,0,0,1-.73.26c-.38.13-.68.23-.89.33a1.87,1.87,0,0,0-.64.46,1.08,1.08,0,0,0-.3.75A1,1,0,0,0,174.93,144.33Z"/><path class="cls-1" d="M196.94,143.88a6.56,6.56,0,0,1,0-8.88,5.68,5.68,0,0,1,8.37,0,6.51,6.51,0,0,1,0,8.88,5.7,5.7,0,0,1-8.37,0Zm3.91-9.94a3.17,3.17,0,0,0-2.79,1.54,6.27,6.27,0,0,0-1,3.56,8.12,8.12,0,0,0,.48,2.8A5.18,5.18,0,0,0,199,144a3.53,3.53,0,0,0,2.39.88,3.07,3.07,0,0,0,2.08-.77,4.47,4.47,0,0,0,1.3-1.91,7,7,0,0,0,.42-2.43,8,8,0,0,0-.48-2.79,5.18,5.18,0,0,0-1.5-2.19A3.53,3.53,0,0,0,200.85,133.94Z"/><path class="cls-1" d="M218.48,132.64a1.89,1.89,0,0,1,1.76.72c0,.78-.22,1.17-.67,1.17a.59.59,0,0,1-.46-.29c-.15-.19-.32-.38-.51-.58a.94.94,0,0,0-.7-.3,1.41,1.41,0,0,0-1.26,1,5.92,5.92,0,0,0-.44,2.36v.94c0,.07,0,.1.09.1h2.06c.06,0,.09,0,.09.13a1.71,1.71,0,0,1-.22.74h-1.91a.1.1,0,0,0-.11.11V143a6.86,6.86,0,0,0,.16,1.65c0,.09.18.17.46.25a2.53,2.53,0,0,0,.58.12s.06.08.08.23a.89.89,0,0,1,0,.31l-2-.09-1.94.09s-.05-.08-.06-.18a1,1,0,0,1,0-.25c0-.07,0-.11.06-.11a2.39,2.39,0,0,0,.63-.12c.27-.08.42-.16.44-.25a6.34,6.34,0,0,0,.19-1.65v-4.26c0-.09,0-.13-.09-.13h-1s-.05,0-.05-.11a.86.86,0,0,1,.29-.47.92.92,0,0,1,.63-.29h.12c.06,0,.09,0,.09-.11v-.25a5.08,5.08,0,0,1,1.16-3.35A3.28,3.28,0,0,1,218.48,132.64Z"/><path class="cls-1" d="M229.44,132.64a1.88,1.88,0,0,1,1.76.72q0,1.17-.66,1.17a.59.59,0,0,1-.47-.29c-.15-.19-.32-.38-.51-.58a.92.92,0,0,0-.69-.3,1.39,1.39,0,0,0-1.26,1,5.74,5.74,0,0,0-.45,2.36v.94c0,.07,0,.1.09.1h2.06c.06,0,.1,0,.1.13a1.75,1.75,0,0,1-.23.74h-1.91a.1.1,0,0,0-.11.11V143a6.8,6.8,0,0,0,.17,1.65c0,.09.17.17.45.25a2.58,2.58,0,0,0,.59.12s.06.08.07.23a.7.7,0,0,1,0,.31l-2-.09-1.95.09a.35.35,0,0,1-.05-.18.53.53,0,0,1,0-.25c0-.07,0-.11.05-.11a2.39,2.39,0,0,0,.63-.12c.27-.08.42-.16.45-.25a6.83,6.83,0,0,0,.18-1.65v-4.26c0-.09,0-.13-.09-.13h-1s-.06,0-.06-.11.1-.27.3-.47a.92.92,0,0,1,.63-.29h.11c.06,0,.09,0,.09-.11v-.25a5.13,5.13,0,0,1,1.16-3.35A3.29,3.29,0,0,1,229.44,132.64Z"/><path class="cls-1" d="M238.69,143a6.89,6.89,0,0,0,.15,1.65c0,.09.18.17.48.25a2.71,2.71,0,0,0,.63.12s.06.08.07.23a.7.7,0,0,1,0,.31l-2-.09-2,.09a.44.44,0,0,1-.07-.3c0-.16,0-.24.07-.24a2.72,2.72,0,0,0,.66-.12c.29-.08.45-.16.47-.25a5.43,5.43,0,0,0,.13-1.3v-3.5a1.48,1.48,0,0,0-.26-1,.94.94,0,0,0-.45-.31,1.78,1.78,0,0,0-.45-.08c-.12,0-.17,0-.17,0,0-.29,0-.45.11-.46a22.8,22.8,0,0,0,2.55-.48l0,0h.06c.05,0,.08.05.09.16a.86.86,0,0,1,0,.23,11.12,11.12,0,0,0-.09,1.33Zm-1.51-7.83a.94.94,0,0,1,0-1.32.88.88,0,0,1,.65-.27.93.93,0,1,1,0,1.86A.88.88,0,0,1,237.18,135.19Z"/><path class="cls-1" d="M249.51,137.44a3.5,3.5,0,0,1,2.82.95c0,.83-.23,1.24-.68,1.24a.79.79,0,0,1-.49-.14,2.55,2.55,0,0,1-.42-.51,1.65,1.65,0,0,0-1.37-.85,1.79,1.79,0,0,0-1.38.72,3.19,3.19,0,0,0-.63,2.15,4,4,0,0,0,.74,2.47,2.38,2.38,0,0,0,2,1,3.48,3.48,0,0,0,1.34-.25l.43-.2.3-.2.13-.09c.08,0,.11.08.11.24a.59.59,0,0,1-.11.33,3.32,3.32,0,0,1-1.09.94,3.09,3.09,0,0,1-1.58.42,3.54,3.54,0,0,1-2.64-1.16,4,4,0,0,1-1.1-2.83,4.89,4.89,0,0,1,.92-3A3.13,3.13,0,0,1,249.51,137.44Z"/><path class="cls-1" d="M261.4,143a6.89,6.89,0,0,0,.15,1.65c0,.09.18.17.48.25a2.91,2.91,0,0,0,.63.12s.06.08.07.23a.58.58,0,0,1,0,.31l-2-.09-2,.09a.44.44,0,0,1-.07-.3c0-.16,0-.24.07-.24a2.72,2.72,0,0,0,.66-.12c.29-.08.45-.16.47-.25a5.43,5.43,0,0,0,.13-1.3v-3.5a1.48,1.48,0,0,0-.26-1,.94.94,0,0,0-.45-.31,1.78,1.78,0,0,0-.45-.08c-.12,0-.17,0-.17,0,0-.29,0-.45.11-.46a23.67,23.67,0,0,0,2.56-.48l0,0h.06c.05,0,.08.05.09.16a.86.86,0,0,1,0,.23,11.12,11.12,0,0,0-.09,1.33Zm-1.51-7.83a.93.93,0,0,1,.66-1.59.88.88,0,0,1,.65.27.94.94,0,0,1,0,1.32.88.88,0,0,1-.65.27A.9.9,0,0,1,259.89,135.19Z"/><path class="cls-1" d="M272.56,137.44a1.93,1.93,0,0,1,1.46.49,2.32,2.32,0,0,1,.44,1.59v4.28a1,1,0,0,0,.21.65.67.67,0,0,0,.56.26,1.28,1.28,0,0,0,.64-.26c.05,0,.08.05.08.15a.75.75,0,0,1-.09.39,2.22,2.22,0,0,1-1.3.65,1.19,1.19,0,0,1-.82-.36,1.93,1.93,0,0,1-.54-.74l-.13.12a3.63,3.63,0,0,1-.33.28c-.14.11-.29.21-.47.33a2.6,2.6,0,0,1-.63.27,2.33,2.33,0,0,1-.73.12,2.17,2.17,0,0,1-1.41-.46,1.66,1.66,0,0,1-.56-1.36,1.61,1.61,0,0,1,.2-.77,2.06,2.06,0,0,1,.49-.59,3.34,3.34,0,0,1,.76-.48,7.15,7.15,0,0,1,.82-.36l.9-.3.78-.28a.26.26,0,0,0,.17-.28v-1.39a1.16,1.16,0,0,0-.38-.92,1.31,1.31,0,0,0-.89-.32,1.19,1.19,0,0,0-.92.38,1.34,1.34,0,0,0-.37,1c0,.43-.26.65-.76.65a.78.78,0,0,1-.73-.35c0-.54.39-1.06,1.17-1.59A4.18,4.18,0,0,1,272.56,137.44Zm-1.75,6.89a1.21,1.21,0,0,0,.82.27,1.68,1.68,0,0,0,1-.31c.31-.2.47-.41.47-.62v-1.91a5.86,5.86,0,0,1-.73.26c-.38.13-.68.23-.9.33a1.94,1.94,0,0,0-.63.46,1.08,1.08,0,0,0-.3.75A1,1,0,0,0,270.81,144.33Z"/><path class="cls-1" d="M283.27,143.37v-8a6.42,6.42,0,0,0-.11-1.19c-.07-.2-.38-.3-1-.3H282c-.07,0-.11-.06-.11-.2s0-.3.11-.3a7.49,7.49,0,0,0,1-.15,5.35,5.35,0,0,0,.74-.18,4.45,4.45,0,0,0,.46-.18,2.4,2.4,0,0,0,.28-.14l.07-.05h0a.19.19,0,0,1,.15.1.45.45,0,0,1,.09.2,4.94,4.94,0,0,0-.21,1.61V143a6.89,6.89,0,0,0,.15,1.65c0,.09.19.17.48.25a2.87,2.87,0,0,0,.64.12s.06.08.07.23a.7.7,0,0,1,0,.31l-2-.09-2,.09a.43.43,0,0,1-.08-.3c0-.16,0-.24.08-.24a2.66,2.66,0,0,0,.65-.12c.29-.08.45-.16.48-.25A6,6,0,0,0,283.27,143.37Z"/><path class="cls-1" d="M303.54,133.36c.56,0,1.52,0,2.89-.07s2.41-.08,3.1-.08c.05.36.15.84.29,1.42s.22,1,.25,1.11a.5.5,0,0,1-.34.09c-.16,0-.24,0-.25-.13a2.1,2.1,0,0,0-.78-1.31,2.8,2.8,0,0,0-1.38-.29h-1.24c-1.06,0-1.61.09-1.63.25a8.93,8.93,0,0,0-.09,1.55v3c0,.07.26.11.78.11h1a3.69,3.69,0,0,0,1.52-.18,1.72,1.72,0,0,0,.48-1,1.46,1.46,0,0,1,0-.17c0-.08.1-.13.28-.13a.39.39,0,0,1,.31.1v3.59a.42.42,0,0,1-.29.08c-.17,0-.26,0-.3-.15-.09-.34-.16-.59-.22-.75a1.43,1.43,0,0,0-.14-.3l-.16-.12a6.45,6.45,0,0,0-2-.15c-.87,0-1.31.06-1.31.17V143a7.21,7.21,0,0,0,.16,1.72c0,.09.2.17.52.25a3.37,3.37,0,0,0,.67.12c.05,0,.08.1.08.28a1,1,0,0,1,0,.26l-2.15-.09-2.23.09a.39.39,0,0,1-.07-.28c0-.17,0-.26.07-.26a3.13,3.13,0,0,0,.72-.11c.31-.07.49-.16.53-.26a8,8,0,0,0,.12-1.67v-7.13a7.65,7.65,0,0,0-.12-1.6c0-.1-.22-.19-.55-.28a3.63,3.63,0,0,0-.73-.13s-.08-.07-.08-.22a.44.44,0,0,1,.08-.31C302,133.35,302.71,133.36,303.54,133.36Z"/><path class="cls-1" d="M319.54,137.44a1.94,1.94,0,0,1,1.47.49,2.38,2.38,0,0,1,.44,1.59v4.28a1,1,0,0,0,.21.65.66.66,0,0,0,.55.26,1.27,1.27,0,0,0,.65-.26c.05,0,.08.05.08.15a.75.75,0,0,1-.1.39,2.2,2.2,0,0,1-1.29.65,1.19,1.19,0,0,1-.82-.36,1.93,1.93,0,0,1-.54-.74.61.61,0,0,0-.14.12,3.35,3.35,0,0,1-.32.28c-.14.11-.3.21-.47.33a2.6,2.6,0,0,1-.63.27,2.39,2.39,0,0,1-.74.12,2.17,2.17,0,0,1-1.41-.46,1.65,1.65,0,0,1-.55-1.36,1.61,1.61,0,0,1,.2-.77,2.21,2.21,0,0,1,.48-.59,3.86,3.86,0,0,1,.76-.48,7.2,7.2,0,0,1,.83-.36l.9-.3.78-.28c.11,0,.16-.13.16-.28v-1.39a1.15,1.15,0,0,0-.37-.92,1.31,1.31,0,0,0-.89-.32,1.19,1.19,0,0,0-.92.38,1.34,1.34,0,0,0-.38,1c0,.43-.25.65-.76.65a.78.78,0,0,1-.72-.35c0-.54.39-1.06,1.17-1.59A4.17,4.17,0,0,1,319.54,137.44Zm-1.74,6.89a1.21,1.21,0,0,0,.82.27,1.68,1.68,0,0,0,1-.31c.31-.2.46-.41.46-.62v-1.91a6.15,6.15,0,0,1-.72.26c-.38.13-.68.23-.9.33a1.84,1.84,0,0,0-.63.46,1.1,1.1,0,0,0-.31.75A1,1,0,0,0,317.8,144.33Z"/><path class="cls-1" d="M334.49,137.4a1.92,1.92,0,0,1,1.82.93,6.59,6.59,0,0,1,.51,3V143a6.89,6.89,0,0,0,.15,1.65c0,.09.19.17.48.25a2.91,2.91,0,0,0,.63.12s.07.08.08.23a.89.89,0,0,1,0,.31l-2-.09-2,.09a.44.44,0,0,1-.07-.3c0-.16,0-.24.07-.24a2.34,2.34,0,0,0,.62-.12c.27-.08.41-.16.44-.25a6,6,0,0,0,.13-1.3v-1.85a4.32,4.32,0,0,0-.45-2.35,1.65,1.65,0,0,0-1.44-.63,1.78,1.78,0,0,0-1.14.43c-.37.29-.55.55-.55.79V143a6.89,6.89,0,0,0,.15,1.65c0,.09.18.17.48.25a2.91,2.91,0,0,0,.63.12s.06.08.07.23a.58.58,0,0,1,0,.31l-2-.09-2,.09a.44.44,0,0,1-.07-.3c0-.16,0-.24.07-.24a2.72,2.72,0,0,0,.66-.12c.29-.08.45-.16.47-.25a5.43,5.43,0,0,0,.13-1.3v-3.5a1.48,1.48,0,0,0-.26-1,.94.94,0,0,0-.45-.31,1.78,1.78,0,0,0-.45-.08c-.12,0-.17,0-.17,0,0-.29,0-.45.11-.46a23.67,23.67,0,0,0,2.56-.48l.09,0c.05,0,.08.05.09.16a.86.86,0,0,1,0,.23,5.56,5.56,0,0,0-.07.74s0,.07,0,.07l.06,0a4.65,4.65,0,0,1,1.16-.85A3,3,0,0,1,334.49,137.4Z"/><path class="cls-1" d="M347.66,137.44a3.5,3.5,0,0,1,2.82.95c0,.83-.23,1.24-.69,1.24a.74.74,0,0,1-.48-.14,2.52,2.52,0,0,1-.43-.51,1.63,1.63,0,0,0-1.37-.85,1.79,1.79,0,0,0-1.38.72,3.19,3.19,0,0,0-.62,2.15,4,4,0,0,0,.73,2.47,2.4,2.4,0,0,0,2,1,3.51,3.51,0,0,0,.74-.07,3.09,3.09,0,0,0,.6-.18l.43-.2.31-.2.13-.09c.07,0,.11.08.11.24a.68.68,0,0,1-.11.33,3.47,3.47,0,0,1-1.1.94,3.05,3.05,0,0,1-1.57.42,3.51,3.51,0,0,1-2.64-1.16,3.94,3.94,0,0,1-1.11-2.83,4.83,4.83,0,0,1,.93-3A3.13,3.13,0,0,1,347.66,137.44Z"/><path class="cls-1" d="M357.74,143.37v-8a5.66,5.66,0,0,0-.11-1.19c-.06-.2-.38-.3-.94-.3h-.17c-.08,0-.11-.06-.11-.2s0-.3.11-.3a7.72,7.72,0,0,0,1-.15,6.2,6.2,0,0,0,.74-.18,3.49,3.49,0,0,0,.45-.18,1.43,1.43,0,0,0,.28-.14l.08-.05h0a.19.19,0,0,1,.15.1.45.45,0,0,1,.09.2,5.27,5.27,0,0,0-.2,1.61V143a6.89,6.89,0,0,0,.15,1.65c0,.09.18.17.48.25a2.91,2.91,0,0,0,.63.12s.06.08.07.23a.73.73,0,0,1,0,.31l-2-.09-2,.09a.44.44,0,0,1-.07-.3c0-.16,0-.24.07-.24a2.72,2.72,0,0,0,.66-.12c.29-.08.45-.16.47-.25A5.43,5.43,0,0,0,357.74,143.37Z"/><path class="cls-1" d="M373.57,139.2v3.71a6.64,6.64,0,0,0,.13,1.41.31.31,0,0,0,.2.2,1.48,1.48,0,0,0,.36.1l.37,0h.16s.06.08.06.21a.68.68,0,0,1-.05.17c0,.08-.06.12-.1.12s-.39,0-.62.08l-.64.13-.56.15-.4.13-.17,0c-.1,0-.15-.1-.15-.29v-.95l0-.09a3.44,3.44,0,0,1-2.43,1.32,2,2,0,0,1-1.18-.35,2,2,0,0,1-.72-.91,4.82,4.82,0,0,1-.33-1.09,6.53,6.53,0,0,1-.09-1.1v-2.34a1.48,1.48,0,0,0-.26-1,1,1,0,0,0-.46-.31,1.65,1.65,0,0,0-.44-.08c-.12,0-.18,0-.18,0,0-.29,0-.45.12-.46a23.31,23.31,0,0,0,2.55-.48l.1,0c.05,0,.08.05.09.16a.86.86,0,0,1,0,.23,12.79,12.79,0,0,0-.11,1.37v2.5a4.1,4.1,0,0,0,.42,2.11,1.52,1.52,0,0,0,1.39.67,1.57,1.57,0,0,0,1.06-.43c.33-.29.5-.54.5-.75v-3.47a1.43,1.43,0,0,0-.26-1,.94.94,0,0,0-.45-.31,1.78,1.78,0,0,0-.45-.08c-.11,0-.17,0-.17,0,0-.29,0-.45.11-.46a23.67,23.67,0,0,0,2.56-.48l.09,0c.05,0,.08.05.09.16a.86.86,0,0,1,0,.23A12.8,12.8,0,0,0,373.57,139.2Z"/><path class="cls-1" d="M384.88,137.4a3.44,3.44,0,0,1,2.79,1.22,4,4,0,0,1,1,2.59,4.29,4.29,0,0,1-1.31,3.09,4,4,0,0,1-2.88,1.34,6.94,6.94,0,0,1-1.31-.12c-.41-.08-.65-.12-.71-.12a1.14,1.14,0,0,0-.42.1,1.31,1.31,0,0,1-.29.1.77.77,0,0,1-.23-.06c-.1,0-.16-.08-.16-.13s0-.11.06-.3.07-.47.11-.85a11.57,11.57,0,0,0,.06-1.24v-7.67a6.42,6.42,0,0,0-.11-1.19c-.07-.2-.38-.3-.95-.3h-.17c-.07,0-.11-.06-.11-.2s0-.3.11-.3a7.49,7.49,0,0,0,1-.15,5.74,5.74,0,0,0,.74-.18,4.45,4.45,0,0,0,.46-.18,2.4,2.4,0,0,0,.28-.14l.07-.05h0a.19.19,0,0,1,.15.1.59.59,0,0,1,.09.2,4.94,4.94,0,0,0-.21,1.61v3.24q0,.21.06.21l.06,0a3,3,0,0,1,.79-.39A2.69,2.69,0,0,1,384.88,137.4Zm-.59.91a1.4,1.4,0,0,0-.89.29,1,1,0,0,0-.38.83v4.32a.89.89,0,0,0,.55.84,2.86,2.86,0,0,0,1.27.27,1.84,1.84,0,0,0,1.65-1,4.32,4.32,0,0,0,.59-2.27,3.57,3.57,0,0,0-.76-2.37A2.56,2.56,0,0,0,384.29,138.31Z"/><path class="cls-1" d="M5.27,104.5A14.11,14.11,0,0,0,3,101.63a3.29,3.29,0,0,1-1.38-2A38.8,38.8,0,0,1,.15,95.73a14.06,14.06,0,0,1,.52-6.29,91.72,91.72,0,0,1,4.6-12.19C7.41,72.42,10.85,65.57,12.86,62S22.32,47.24,23.78,45.4s3.26-3.87,5.41-6.1,4.36-4.37,6.66-6.44a40.72,40.72,0,0,1,5.75-4.48,23.51,23.51,0,0,1,10-3.91c3.45-.46,8.43-1.36,10.88.63,2.86,0,7.12,3,8.58,4.29s8.39,11.14,8.48,14.86-4.14,11.5-4.14,11.5q-3,9.2-1.49,16.09a39.92,39.92,0,0,0,4.48,12,12.13,12.13,0,0,0,4.72,4.83,16.89,16.89,0,0,0,6.78,2.76,7.58,7.58,0,0,1,3.45,1.38A4.23,4.23,0,0,1,95,96.45a6.55,6.55,0,0,1-.92,3.68A4.78,4.78,0,0,1,90.82,102a19.7,19.7,0,0,1-14.14-3.68Q70.13,93.7,64.6,83.11a30.9,30.9,0,0,1-2.41-5.17,38.19,38.19,0,0,1-1.73-5q-.91,1.16-3.45,4.26T53.1,81.73q-16.33,16.56-28.17,22.2T5.27,104.5Zm13.22-13a37.38,37.38,0,0,0,10.7-6.33Q37,78.52,44.94,70.46A118.66,118.66,0,0,0,57.7,55.52l5.06-8.28q-2.3-5.3-4.94-7.25a8.17,8.17,0,0,0-4.49-2q-3,0-8.85,5.52A104.61,104.61,0,0,0,32,58.28,180.7,180.7,0,0,0,19.3,78.51c-1.54,3.07-5.15,8.29-5.25,11.65C14.4,91,15.19,92.66,18.49,91.51Z"/><path class="cls-1" d="M276.19,102a10.49,10.49,0,0,1-2.57-4.64,14.84,14.84,0,0,1-.5-5.52,12.69,12.69,0,0,1,1.22-4.59c.05-.84.31-2.13.42-2.89.09-.59.11-1,.25-1.77a26.14,26.14,0,0,1,.82-3.36c.48-1.53,1-3,1.45-4.35q1.65-3.66,3.57-8.81t3.6-10.18q1.68-5,2.88-8.7c.8-2.44,1.29-4,1.45-4.58q0-2.76,3.72-2.94c1.85-.58,3.23-.6,4.14,0s2.12,2.06,3.62,4.54c1.2,1.24,1.64,3.09,1.3,5.53a33.62,33.62,0,0,1-3.12,9.16,50.78,50.78,0,0,0-2.26,5.26,34.7,34.7,0,0,0-1.82,6.18c-.63,1.22-1.39,2.94-2.26,5.14s-1.63,4.31-2.27,6.3a21.27,21.27,0,0,0-1,3.32c-.33,1.45-.73,3-1.22,4.58a16.41,16.41,0,0,1-1.9,4.23q-2.21,9.41-3.95,11C280.62,105.88,278.76,104.93,276.19,102Z"/><path class="cls-1" d="M298.26,24.07a10.21,10.21,0,0,1-2.2-3.24c-.68-1.43-.29-1.69-.24-3,.21-5.76,6.57-13.77,7-14.33a3.15,3.15,0,0,1,1.56-1.1c1.79-1.3,2.5-2.64,4.3-1.88a12.65,12.65,0,0,1,5.14,4.74q2.25,4.27,1.45,7.19t-4.73,8.14q-3.26,4.74-6.11,5.31T298.26,24.07Z"/><path class="cls-1" d="M186.48,96.62A8.65,8.65,0,0,1,183.79,93c-1-3.46-.55-10.58-.27-13.34a71.24,71.24,0,0,0,.24-9.2,31.2,31.2,0,0,0-1.13-8,14.83,14.83,0,0,1-.37-1.83,14.23,14.23,0,0,1-.13-1.84,11.33,11.33,0,0,0-3-4.45,34,34,0,0,0-5.45-4.54,9.27,9.27,0,0,0-4.74-1.9,9.72,9.72,0,0,0-3,.84c-1.38.56-2.67,1.15-3.89,1.77a25.68,25.68,0,0,0-7,3.42c-3.12,2-6.24,3.65-9,5.68s-8.25,5.92-10.31,7.4-7.12,5.35-10.31,7.54c-.2-.74,2-6.1,2.48-7.45s4.19-8.59,5.27-10.74c3.56-7.12,5.91-12,5.31-14.28-1-3.81-1.18-5.95-4.77-8.82a6.3,6.3,0,0,0-4.39-1.79,6.49,6.49,0,0,0-4.14,1.18c-.5.51-1.9,2.84-1.6,3.39,0,2.85-1.72,7-2.65,9.45-2,5.37-9,19.75-10.08,23.08-.73,2.09-2.28,5.49-2.41,7.11a13.12,13.12,0,0,1-.63,2.38c-.3.77-.77,2.38-1.44,4.84s-1.2,4.93-1.63,7.38a34.44,34.44,0,0,0-.64,4.84,13.86,13.86,0,0,0,2.1,2.62c1.09,1.14,2.18,2.31,3.26,3.53,1.55,1.21,2.75,2.07,3.6,2.6a3,3,0,0,0,3.1-.15c1.23,0,2.18-1,2.84-2.91s2.67-4.75,6-8.47q6.38-5.59,13.56-10.73c4.79-3.43,8.88-6.87,13.29-9.76s7.45-4.7,10.19-6.42c2.43-1.41,5.36-2.14,6.67-1.77s2.31,10.26,1.65,13.66a42.51,42.51,0,0,0-.38,5.07,48.38,48.38,0,0,0,.41,7.24A53.13,53.13,0,0,0,172,96.78a14.78,14.78,0,0,0,5.14,6.5,13.63,13.63,0,0,0,7.61,1.87q3.66-1,4.1-3.39C189.13,100.15,188.34,98.43,186.48,96.62Z"/><path class="cls-1" d="M435.89,99.12c-.46-1.69-1.84-2.68-4.14-3a37.21,37.21,0,0,1-5.17-1,5,5,0,0,1-2.65-1.49,12.08,12.08,0,0,1-.8-4c-.23-2.22-.43-4.71-.58-7.47s-.31-5.14-.46-7.13q0-7.35-.11-10.35a7.89,7.89,0,0,0-2.88-5.52q-4.14-6.66-10.81-4.83T392.66,63c-1.08.92-2.69,2.27-4.83,4s-5,4.18-8.51,7.24q2.07-6.44,3.22-10c.76-2.38,1.22-3.87,1.38-4.49a17.13,17.13,0,0,0,.23-4.83,6.56,6.56,0,0,0-1.84-4.14c-2.46-2.45-4.18-4.14-5.18-5.06s-2.8-1.38-5.4-1.38a52.38,52.38,0,0,0-8.51,3.91,122.12,122.12,0,0,0-11.62,7.25,94.17,94.17,0,0,0-10.92,8.85c-1.53,1.23-3,2.5-4.48,3.8s-2.65,2.3-3.57,3l-2.47,1.94c.87-3.23,6.28-11,7.5-13.47,3.43-7.74,5.7-11.79,5.7-15.74s-2.32-8.27-5.55-11.54c-1.62-1.64-.74-1.27-2.48-1.58s-6.91,1.27-6.87,5c.2,3.69-1.14,6.82-1.95,9.28s-1.41,3.28-3,7.21c-.26.91-4.44,11.49-4.91,13.11s-2.77,7.85-3.83,11.78-2.24,12.41-2.24,12.41l.17-.13c-.5,3.22-.29,5.84.65,7.84a8.92,8.92,0,0,0,9,6.9c.46,0,1.34-.92,2.65-2.76s2.91-4,4.83-6.44a41.94,41.94,0,0,1,5.86-6.21q4.61-4.6,9.31-9a56.29,56.29,0,0,0,6.39-7,31.86,31.86,0,0,0,4.54-4,37.28,37.28,0,0,1,7.59-5.86A18.66,18.66,0,0,1,369,60.71q.69-.23.69.81a20.25,20.25,0,0,1-1.38,4.83q-1.38,3.8-5.06,12.07L357.93,93.6a6.19,6.19,0,0,0-.23,2.87,4.56,4.56,0,0,0,1.38,2.42l2.53,2.07q2.76,2.07,4.83,1.49a10,10,0,0,0,4.25-2.76c1.46-1.45,2.95-3,4.49-4.71q6.9-7.37,13.57-13.34a119.54,119.54,0,0,1,11.84-9.54c3.45-2.38,5.78-3.57,7-3.57s1.8,1.31,1.73,3.91-.2,6.21-.35,10.81q0,8.06,1.61,12.53c1.07,3,2.38,5.1,3.91,6.33a16,16,0,0,0,3.45,2.3,26,26,0,0,0,7.36,1.38A13,13,0,0,0,432.9,104Q436.58,101.66,435.89,99.12Z"/><path class="cls-1" d="M214.48,106.29a7.81,7.81,0,0,1-4.34-1.05q-1.59-1-3.91-2.95a23.68,23.68,0,0,1-5.58-8.15,21.18,21.18,0,0,1-1.2-7.43,37.67,37.67,0,0,1,.39-6.23,81.22,81.22,0,0,1,2.78-10.79A58.19,58.19,0,0,1,207.92,59q1.28-2.1,3.81-5.57t5.61-7A52.82,52.82,0,0,1,223,40.87a55.22,55.22,0,0,1,9.32-6.52A36.05,36.05,0,0,1,241,31.19a35.27,35.27,0,0,1,6.46-1.05c1.2,0,2.86,1.13,5,3.37a17.07,17.07,0,0,1,7.09,5.05q2.24,2.94,2.86,8.62a49.4,49.4,0,0,1-.95,14.41q-1.59,8.1-10.06,20.09a57.52,57.52,0,0,1-9.74,11.25A78.51,78.51,0,0,1,231,100.19,41.32,41.32,0,0,1,223,104.5,31.19,31.19,0,0,1,214.48,106.29Zm19.8-22.91a70.12,70.12,0,0,0,7.64-10.16,64.7,64.7,0,0,0,5.6-12,20.09,20.09,0,0,0,1-5.53,37.61,37.61,0,0,0-.1-6.23c-.19-1.94-.69-3-1.49-3.32a8.71,8.71,0,0,0-5.78-.9c-2.27.34-4.73,1.64-7.38,3.92a50,50,0,0,0-10.77,13,171.56,171.56,0,0,0-9,17.59c-2,4.82-2.43,8.67-1.29,11.55s3.59,3.89,7.38,3S228.56,89.54,234.28,83.38Z"/></svg>